<?xml version="1.0" standalone="no"?>
<!DOCTYPE svg PUBLIC "-//W3C//DTD SVG 20010904//EN"
 "http://www.w3.org/TR/2001/REC-SVG-20010904/DTD/svg10.dtd">
<svg version="1.0" xmlns="http://www.w3.org/2000/svg"
 width="111.000000pt" height="111.000000pt" viewBox="0 0 111.000000 111.000000"
 preserveAspectRatio="xMidYMid meet">
<metadata>
Created by potrace 1.11, written by Peter Selinger 2001-2013
</metadata>
<g transform="translate(0.000000,111.000000) scale(0.100000,-0.100000)"
fill="#000000" stroke="none">
<path d="M170 1023 c-36 -43 -74 -88 -84 -101 l-19 -24 109 -111 c60 -62 135
-139 166 -172 l57 -60 -189 -200 -188 -199 76 -78 76 -79 125 133 c69 73 154
162 189 198 l63 65 159 -164 158 -164 56 48 c31 26 56 51 56 55 0 4 -65 90
-145 191 l-145 183 33 35 c18 20 109 116 201 214 93 97 167 179 165 181 -28
23 -160 116 -166 116 -4 1 -89 -83 -189 -186 l-181 -188 -152 192 c-84 106
-156 192 -159 192 -4 0 -37 -35 -72 -77z"/>
</g>
</svg>
