<svg id="Layer_3" enable-background="new 0 0 64 64" height="512" viewBox="0 0 64 64" width="512" xmlns="http://www.w3.org/2000/svg"><g fill="#f4b2b0"><path d="m62 60-13-13-3 3 13 13"/><path d="m26.761 34c1.165-2.978 3.585-5.318 6.615-6.376l.624-.624v-1l-2-2v-4l-4-4h-4l-2 2v4l-2 2v4l6 6z"/><path d="m46.858 42.858c-1.071 2.169-2.831 3.929-5 5l3.142 3.142 5-5z"/><path d="m37 27c-6.075 0-11 4.925-11 11s4.925 11 11 11 11-4.925 11-11-4.925-11-11-11zm0 18c-3.866 0-7-3.134-7-7s3.134-7 7-7 7 3.134 7 7-3.134 7-7 7z"/></g><path d="m37 30c-4.411 0-8 3.589-8 8s3.589 8 8 8 8-3.589 8-8-3.589-8-8-8zm0 14c-3.309 0-6-2.691-6-6s2.691-6 6-6 6 2.691 6 6-2.691 6-6 6z" fill="#b3404a"/><path d="m61.293 60.707 1.414-1.414-10.293-10.293h1.586c.553 0 1-.448 1-1v-46c0-.552-.447-1-1-1h-52c-.553 0-1 .448-1 1v46c0 .552.447 1 1 1h30.218c1.466.64 3.082 1 4.782 1 1.647 0 3.218-.334 4.648-.938l2.645 2.645c.195.195.451.293.707.293s.512-.098.707-.293l.293-.293 12.293 12.293 1.414-1.414-12.293-12.293 1.586-1.586zm-8.293-42.707h-8.586l-3.414-3.414v-3.586c0-.265-.105-.52-.293-.707l-4-4c-.187-.188-.441-.293-.707-.293h-3.586l-3-3h23.586zm-43-15v3c0 .265.105.52.293.707l1.707 1.707v4.172l-3.414 3.414h-3.586c-.266 0-.52.105-.707.293l-1.293 1.293v-14.586zm-7 28h6.586l3.414 3.414v3.586c0 .265.105.52.293.707l2 2c.187.188.441.293.707.293h3.586l3.414 3.414v2.586h-20zm22 16v-3c0-.265-.105-.52-.293-.707l-4-4c-.187-.188-.441-.293-.707-.293h-3.586l-1.414-1.414v-3.586c0-.265-.105-.52-.293-.707l-4-4c-.187-.188-.441-.293-.707-.293h-7v-8.586l2.414-2.414h3.586c.266 0 .52-.105.707-.293l4-4c.188-.187.293-.442.293-.707v-5c0-.265-.105-.52-.293-.707l-1.707-1.707v-2.586h14.586l4.707 4.707c.187.188.441.293.707.293h3.586l3.414 3.414v3.586c0 .265.105.52.293.707l4 4c.187.188.441.293.707.293h9v27h-2.586l.293-.293c.391-.391.391-1.023 0-1.414l-2.645-2.645c.604-1.43.938-3.001.938-4.648 0-6.617-5.383-12-12-12-.683 0-1.348.071-2 .181v-.181c0-.265-.105-.52-.293-.707l-1.707-1.707v-3.586c0-.265-.105-.52-.293-.707l-4-4c-.187-.188-.441-.293-.707-.293h-4c-.266 0-.52.105-.707.293l-2 2c-.188.187-.293.442-.293.707v3.586l-1.707 1.707c-.188.187-.293.442-.293.707v4c0 .265.105.52.293.707l6 6c.044.044.101.067.151.101-.281 1.018-.444 2.085-.444 3.192 0 3.585 1.589 6.799 4.089 9zm1.206-14.208-5.206-5.206v-3.172l1.707-1.707c.188-.187.293-.442.293-.707v-3.586l1.414-1.414h3.172l3.414 3.414v3.586c0 .265.105.52.293.707l1.707 1.707v.286c-2.986 1.06-5.425 3.266-6.794 6.092zm6.473 14.212v-.004h-.009c-3.348-1.618-5.67-5.038-5.67-9 0-5.514 4.486-10 10-10s10 4.486 10 10-4.486 10-10 10c-1.549 0-3.011-.364-4.321-.996zm10.813 1.073c1.435-.928 2.658-2.151 3.586-3.586l1.508 1.509-3.586 3.586z" fill="#b3404a"/></svg>